#!OML:ASF H:\GeneralSubjects\Female5\Project 1\Capture day 1\Session 1\Female5.ASF
:FULLY-SPECIFIED
:DEGREES
243
root -21.7109 15.8474 6.28271 -170.028 -22.6057 -175.41
lowerback 7.55788 1.03423 2.05319
upperback -9.08942 1.58834 4.43274
thorax -14.3658 0.570893 3.53665
lowerneck -10.9115 -4.5006 -8.75408
upperneck 25.045 -9.57084 12.4931
head 10.863 -4.49258 4.66049
rclavicle 4.54223e-014 -1.82882e-014
rhumerus -27.3362 -24.8571 -3.73803
rradius 130.711
rwrist 14.2946
rhand -46.9992 -2.55201
rfingers 7.12502
rthumb -19.7065 -31.5731
lclavicle 4.54223e-014 -1.82882e-014
lhumerus -13.5707 22.9205 23.4314
lradius 137.101
lwrist -34.9358
lhand -48.5718 60.5594
lfingers 7.12502
lthumb -21.2178 -270.582
rfemur 1.64569 34.6679 39.0589
rtibia -9.48714
rfoot -45.1177 -39.7157
rtoes 20.6489
lfemur -16.0775 -21.281 -0.391337
ltibia 12.1778
lfoot -16.4459 19.8906
ltoes -68.8735
244
root -21.7047 15.8503 6.27963 -170.037 -22.7152 -175.393
lowerback 7.60484 1.01805 2.07098
upperback -9.11503 1.57187 4.45942
thorax -14.4266 0.562082 3.56212
lowerneck -10.7506 -4.48915 -9.0279
upperneck 24.9768 -9.58876 12.7725
head 10.8365 -4.5096 4.81174
rclavicle 9.0447e-014 1.98785e-014
rhumerus -27.381 -24.912 -3.55938
rradius 130.68
rwrist 14.1171
rhand -46.9603 -3.05224
rfingers 7.12502
rthumb -19.6692 -32.0772
lclavicle 9.0447e-014 1.98785e-014
lhumerus -13.6482 22.9115 23.4331
lradius 137.115
lwrist -34.8374
lhand -48.6176 60.3806
lfingers 7.12502
lthumb -21.2617 -270.766
rfemur 1.61885 34.4943 39.0664
rtibia -9.52562
rfoot -44.9896 -39.7148
rtoes 20.6316
lfemur -16.1971 -20.9891 -0.364217
ltibia 12.2671
lfoot -16.1387 19.9519
ltoes -68.9797
245
root -21.6977 15.8537 6.27751 -170.048 -22.8372 -175.385
lowerback 7.66355 1.00126 2.08937
upperback -9.1209 1.55667 4.47395
thorax -14.4707 0.554319 3.57217
lowerneck -10.6891 -4.49563 -9.24404
upperneck 24.9469 -9.62471 12.9977
head 10.8412 -4.5291 4.9294
rclavicle 1.17283e-014 -1.59028e-015
rhumerus -27.453 -25.0056 -3.41277
rradius 130.643
rwrist 13.9663
rhand -46.9352 -3.69669
rfingers 7.12502
rthumb -19.645 -32.7241
lclavicle 1.17283e-014 -1.59028e-015
lhumerus -13.6567 22.9235 23.4658
lradius 137.092
lwrist -34.7639
lhand -48.6571 60.1924
lfingers 7.12502
lthumb -21.2997 -270.958
rfemur 1.57551 34.3077 39.0639
rtibia -9.53676
rfoot -44.8868 -39.69
rtoes 20.6126
lfemur -16.3311 -20.6989 -0.349201
ltibia 12.3666
lfoot -15.8305 19.9939
ltoes -69.0562
246
root -21.6898 15.8572 6.27644 -170.056 -22.9727 -175.392
lowerback 7.74041 0.990532 2.11165
upperback -9.1064 1.55235 4.46505
thorax -14.501 0.55138 3.55023
lowerneck -10.7414 -4.53271 -9.34242
upperneck 24.9494 -9.68456 13.1035
head 10.8721 -4.55241 4.97704
rclavicle 3.10104e-014 -5.00937e-014
rhumerus -27.5712 -25.1175 -3.33758
rradius 130.614
rwrist 13.9078
rhand -46.9655 -4.62173
rfingers 7.12502
rthumb -19.6741 -33.6462
lclavicle 3.10104e-014 -5.00937e-014
lhumerus -13.5665 22.9466 23.5428
lradius 137.031
lwrist -34.7251
lhand -48.6904 60.0069
lfingers 7.12502
lthumb -21.3317 -271.147
rfemur 1.50264 34.1079 39.0403
rtibia -9.50087
rfoot -44.7925 -39.6384
rtoes 20.555
lfemur -16.484 -20.4179 -0.352892
ltibia 12.4804
lfoot -15.5098 19.9809
ltoes -69.0994
247
root -21.6812 15.861 6.27631 -170.053 -23.1214 -175.418
lowerback 7.83369 0.989168 2.13303
upperback -9.07399 1.56238 4.43161
thorax -14.5199 0.555241 3.49712
lowerneck -10.9072 -4.60469 -9.31995
upperneck 24.9786 -9.77025 13.0806
head 10.9266 -4.58049 4.94993
rclavicle -4.32357e-015 -3.4191e-014
rhumerus -27.7361 -25.2259 -3.37628
rradius 130.604
rwrist 13.9972
rhand -47.077 -5.68379
rfingers 7.12502
rthumb -19.7813 -34.6972
lclavicle -4.32357e-015 -3.4191e-014
lhumerus -13.3769 22.9704 23.6713
lradius 136.938
lwrist -34.7373
lhand -48.7143 59.8469
lfingers 7.12502
lthumb -21.3546 -271.31
rfemur 1.38559 33.8962 38.9825
rtibia -9.40968
rfoot -44.6872 -39.5631
rtoes 20.4893
lfemur -16.6649 -20.1581 -0.375712
ltibia 12.6146
lfoot -15.1864 19.9045
ltoes -69.0913
248
root -21.6716 15.8647 6.27697 -170.032 -23.2776 -175.474
lowerback 7.93603 0.993929 2.13316
upperback -9.03251 1.57877 4.38513
thorax -14.5338 0.564426 3.43938
lowerneck -11.1419 -4.70119 -9.23272
upperneck 25.0283 -9.87097 12.9658
head 10.9963 -4.61308 4.87382
rclavicle 1.79403e-014 -5.32743e-014
rhumerus -27.9105 -25.3333 -3.4899
rradius 130.608
rwrist 14.1226
rhand -47.1382 -6.46802
rfingers 7.12502
rthumb -19.8401 -35.4754
lclavicle 1.79403e-014 -5.32743e-014
lhumerus -13.1447 22.9828 23.8323
lradius 136.84
lwrist -34.7901
lhand -48.7288 59.7234
lfingers 7.12502
lthumb -21.3685 -271.435
rfemur 1.22875 33.6775 38.8805
rtibia -9.27744
rfoot -44.5602 -39.4741
rtoes 20.418
lfemur -16.8724 -19.9452 -0.426042
ltibia 12.7674
lfoot -14.8755 19.7991
ltoes -69.0925
